<?xml version="1.0" encoding="UTF-8" standalone="no"?>
<!-- Generator: Adobe Illustrator 15.0.0, SVG Export Plug-In . SVG Version: 6.00 Build 0)  -->

<svg
   xmlns:dc="http://purl.org/dc/elements/1.1/"
   xmlns:cc="http://creativecommons.org/ns#"
   xmlns:rdf="http://www.w3.org/1999/02/22-rdf-syntax-ns#"
   xmlns:svg="http://www.w3.org/2000/svg"
   xmlns="http://www.w3.org/2000/svg"
   xmlns:sodipodi="http://sodipodi.sourceforge.net/DTD/sodipodi-0.dtd"
   xmlns:inkscape="http://www.inkscape.org/namespaces/inkscape"
   version="1.1"
   id="svg2"
   sodipodi:docname="ohw-logo.svg"
   inkscape:version="0.48.5 r10040"
   x="0px"
   y="0px"
   width="208.6615"
   height="189.21222"
   viewBox="0 0 168.70656 177.41862"
   enable-background="new 0 0 271.049 219.942"
   xml:space="preserve"><metadata
     id="metadata3072"><rdf:RDF><cc:Work
         rdf:about=""><dc:format>image/svg+xml</dc:format><dc:type
           rdf:resource="http://purl.org/dc/dcmitype/StillImage" /></cc:Work></rdf:RDF></metadata><defs
     id="defs3070" /><sodipodi:namedview
     pagecolor="#ffffff"
     bordercolor="#666666"
     id="base"
     borderopacity="1.0"
     inkscape:pageopacity="0.0"
     inkscape:zoom="2.1649824"
     inkscape:pageshadow="2"
     inkscape:cx="146.32538"
     inkscape:cy="143.03046"
     inkscape:document-units="px"
     inkscape:current-layer="g2995"
     showgrid="false"
     inkscape:window-width="1380"
     inkscape:window-height="856"
     inkscape:window-x="60"
     inkscape:window-y="0"
     inkscape:window-maximized="1"
     fit-margin-top="4"
     fit-margin-left="4"
     fit-margin-right="4"
     fit-margin-bottom="4"
     inkscape:snap-global="true"
     showguides="true"><inkscape:grid
       type="xygrid"
       id="grid3074"
       empspacing="5"
       visible="true"
       enabled="true"
       snapvisiblegridlinesonly="true"
       originx="0.27142957px"
       originy="-71.800831px" /></sodipodi:namedview><g
     id="layer1"
     transform="translate(-179.08099,-228.68182)"
     inkscape:groupmode="layer"
     inkscape:label="Layer 1"><g
       id="g2995"
       transform="translate(-97.995636,-51.675967)"
       style="fill:none;stroke:#000000;stroke-opacity:0.93362834"><g
         id="g3012"
         transform="matrix(1.0112144,0,0,-1.0112144,-158.08171,721.14503)"
         inkscape:label="openHardware"
         style="fill:#7d7d7d;fill-opacity:1;stroke:#7d7d7d;stroke-width:5.56362724;stroke-linecap:square;stroke-linejoin:bevel;stroke-miterlimit:4;stroke-opacity:1;stroke-dasharray:none"><g
           id="g3014"
           style="fill:#7d7d7d;fill-opacity:1;stroke:#7d7d7d;stroke-width:5.56362724;stroke-linecap:square;stroke-linejoin:bevel;stroke-miterlimit:4;stroke-opacity:1;stroke-dasharray:none"><g
             id="g3063"
             style="fill:#7d7d7d;fill-opacity:1;stroke:#7d7d7d;stroke-width:5.56362724;stroke-linecap:square;stroke-linejoin:bevel;stroke-miterlimit:4;stroke-opacity:1;stroke-dasharray:none"><g
               id="g3016"
               style="fill:#7d7d7d;fill-opacity:1;stroke:#7d7d7d;stroke-width:5.56362724;stroke-linecap:square;stroke-linejoin:bevel;stroke-miterlimit:4;stroke-opacity:1;stroke-dasharray:none"><g
                 id="g3022"
                 transform="translate(602.2539,351.748)"
                 style="fill:#7d7d7d;fill-opacity:1;stroke:#7d7d7d;stroke-width:5.56362724;stroke-linecap:square;stroke-linejoin:bevel;stroke-miterlimit:4;stroke-opacity:1;stroke-dasharray:none"><path
                   id="path3024"
                   inkscape:connector-curvature="0"
                   d="M 0,0 -2.12,0.395 C -2.661,0.494 -3.546,0.659 -4.087,0.76 l -18.075,3.362 c -0.541,0.101 -1.131,0.608 -1.311,1.128 l -6.795,15.849 c -0.253,0.489 -0.204,1.259 0.107,1.714 l 10.563,15.392 c 0.311,0.454 0.821,1.196 1.131,1.65 l 1.221,1.778 c 0.309,0.453 0.246,1.142 -0.143,1.531 l -1.524,1.524 -1.414,1.414 -4.419,4.419 -1.414,1.414 -4.417,4.419 -1.415,1.415 -1.525,1.524 c -0.388,0.389 -1.078,0.453 -1.531,0.142 l -1.778,-1.22 c -0.454,-0.312 -1.196,-0.82 -1.649,-1.132 l -15.722,-10.79 c -0.453,-0.312 -1.228,-0.367 -1.722,-0.125 l -15.365,6.289 c -0.522,0.173 -1.03,0.757 -1.132,1.297 l -3.505,18.838 c -0.1,0.541 -0.266,1.426 -0.365,1.966 l -0.396,2.12 c -0.1,0.54 -0.633,0.982 -1.182,0.982 h -2.156 -2 -6.25 -2 -6.25 -2 -2.155 c -0.55,0 -1.082,-0.442 -1.182,-0.983 l -0.395,-2.119 c -0.101,-0.54 -0.265,-1.425 -0.365,-1.966 l -3.506,-18.838 c -0.101,-0.54 -0.609,-1.124 -1.132,-1.297 l -15.365,-6.289 c -0.494,-0.242 -1.269,-0.187 -1.722,0.125 l -15.722,10.79 c -0.454,0.312 -1.196,0.82 -1.649,1.132 l -1.778,1.22 c -0.453,0.311 -1.143,0.247 -1.531,-0.142 l -1.525,-1.524 -1.414,-1.415 -4.419,-4.42 -1.414,-1.414 -4.418,-4.418 -1.414,-1.414 -1.524,-1.524 c -0.389,-0.389 -0.453,-1.078 -0.142,-1.531 l 1.22,-1.778 c 0.31,-0.454 0.82,-1.196 1.131,-1.65 l 10.563,-15.392 c 0.311,-0.455 0.359,-1.225 0.107,-1.714 L -155.065,5.25 c -0.181,-0.52 -0.771,-1.027 -1.312,-1.128 L -174.452,0.76 c -0.541,-0.101 -1.426,-0.266 -1.967,-0.365 L -178.539,0 c -0.541,-0.102 -0.983,-0.633 -0.983,-1.184 l 0.001,-2.156 v -2 -6.25 -2 -6.248 -2 -2.155 c 0,-0.55 0.443,-1.083 0.984,-1.183 l 2.119,-0.394 c 0.541,-0.101 1.426,-0.266 1.967,-0.367 l 17.531,-3.262 c 0.541,-0.1 1.119,-0.612 1.284,-1.137 l 6.748,-16.859 c 0.242,-0.493 0.185,-1.27 -0.127,-1.723 l -9.927,-14.466 c -0.312,-0.454 -0.822,-1.196 -1.132,-1.648 l -1.221,-1.78 c -0.31,-0.453 -0.247,-1.142 0.142,-1.531 l 1.525,-1.524 1.414,-1.414 4.421,-4.421 1.414,-1.414 4.417,-4.416 1.414,-1.415 1.526,-1.524 c 0.388,-0.388 1.078,-0.452 1.531,-0.141 l 1.777,1.219 c 0.453,0.311 1.195,0.821 1.649,1.131 l 14.152,9.712 c 0.453,0.311 1.212,0.336 1.685,0.058 l 2.938,-1.654 c 0.484,-0.26 1.281,-0.677 1.771,-0.927 l 3.043,-1.558 c 0.491,-0.25 1.063,-0.039 1.274,0.469 l 1.306,3.158 c 0.211,0.508 0.555,1.34 0.766,1.848 l 12.277,29.669 c 0.211,0.506 0.555,1.339 0.766,1.846 l 0.869,2.102 c 0.211,0.508 -10e-4,1.158 -0.47,1.445 l -1.94,1.187 c -0.358,0.218 -0.845,0.595 -1.226,0.939 -6.999,4.483 -11.641,12.323 -11.641,21.25 0,13.932 11.294,25.226 25.225,25.226 13.932,0 25.226,-11.294 25.226,-25.226 0,-8.928 -4.643,-16.767 -11.642,-21.25 -0.38,-0.344 -0.867,-0.72 -1.226,-0.939 l -1.939,-1.187 c -0.468,-0.287 -0.68,-0.937 -0.47,-1.445 l 0.87,-2.102 c 0.21,-0.508 0.554,-1.34 0.764,-1.846 l 12.277,-29.669 c 0.211,-0.508 0.555,-1.34 0.765,-1.848 l 1.308,-3.158 c 0.211,-0.508 0.783,-0.719 1.274,-0.469 l 3.042,1.558 c 0.492,0.25 1.288,0.667 1.772,0.927 l 2.937,1.654 c 0.474,0.278 1.233,0.253 1.686,-0.058 l 14.152,-9.712 c 0.453,-0.31 1.197,-0.82 1.648,-1.131 l 1.779,-1.219 c 0.453,-0.311 1.143,-0.247 1.531,0.141 l 1.524,1.524 1.415,1.415 4.417,4.418 1.414,1.414 4.421,4.419 1.414,1.414 1.526,1.524 c 0.388,0.388 0.452,1.078 0.141,1.531 l -1.221,1.78 c -0.311,0.452 -0.821,1.194 -1.132,1.648 l -9.928,14.466 c -0.311,0.453 -0.369,1.229 -0.127,1.723 l 6.748,16.859 c 0.166,0.525 0.744,1.037 1.284,1.137 l 17.532,3.262 c 0.541,0.101 1.426,0.266 1.967,0.367 l 2.118,0.394 c 0.541,0.1 0.983,0.633 0.983,1.183 v 2.155 2 6.248 2 l 0.001,6.25 v 2 l 0.001,2.156 C 0.983,-0.633 0.541,-0.102 0,0"
                   style="fill:#7d7d7d;fill-opacity:1;stroke:#7d7d7d;stroke-width:5.56362724;stroke-linecap:square;stroke-linejoin:bevel;stroke-miterlimit:4;stroke-opacity:1;stroke-dasharray:none" /></g><g
                 id="g3026"
                 transform="translate(575.0156,351.7285)"
                 style="fill:#7d7d7d;fill-opacity:1;stroke:#7d7d7d;stroke-width:5.56362724;stroke-linecap:square;stroke-linejoin:bevel;stroke-miterlimit:4;stroke-opacity:1;stroke-dasharray:none" /></g></g></g></g></g></g></svg>